{
    "asset" : {
        "generator" : "Khronos glTF Blender I/O v0.9.35",
        "version" : "2.0"
    },
    "scene" : 0,
    "scenes" : [
        {
            "name" : "Scene",
            "nodes" : [
                0
            ]
        }
    ],
    "nodes" : [
        {
            "mesh" : 0,
            "name" : "rock1"
        }
    ],
    "materials" : [
        {
            "doubleSided" : true,
            "name" : "Material.001",
            "pbrMetallicRoughness" : {
                "baseColorTexture" : {
                    "index" : 0,
                    "texCoord" : 0
                },
                "metallicFactor" : 0,
                "roughnessFactor" : 0.5
            }
        }
    ],
    "meshes" : [
        {
            "name" : "rock1",
            "primitives" : [
                {
                    "attributes" : {
                        "POSITION" : 0,
                        "NORMAL" : 1,
                        "TEXCOORD_0" : 2
                    },
                    "indices" : 3,
                    "material" : 0
                }
            ]
        }
    ],
    "textures" : [
        {
            "source" : 0
        }
    ],
    "images" : [
        {
            "bufferView" : 4,
            "mimeType" : "image/jpeg",
            "name" : "rock101"
        }
    ],
    "accessors" : [
        {
            "bufferView" : 0,
            "componentType" : 5126,
            "count" : 7107,
            "max" : [
                2.2393970489501953,
                1.2950276136398315,
                1.8679156303405762
            ],
            "min" : [
                -2.242154121398926,
                -1.0384951829910278,
                -1.822701096534729
            ],
            "type" : "VEC3"
        },
        {
            "bufferView" : 1,
            "componentType" : 5126,
            "count" : 7107,
            "type" : "VEC3"
        },
        {
            "bufferView" : 2,
            "componentType" : 5126,
            "count" : 7107,
            "type" : "VEC2"
        },
        {
            "bufferView" : 3,
            "componentType" : 5123,
            "count" : 34878,
            "type" : "SCALAR"
        }
    ],
    "bufferViews" : [
        {
            "buffer" : 0,
            "byteLength" : 85284,
            "byteOffset" : 0
        },
        {
            "buffer" : 0,
            "byteLength" : 85284,
            "byteOffset" : 85284
        },
        {
            "buffer" : 0,
            "byteLength" : 56856,
            "byteOffset" : 170568
        },
        {
            "buffer" : 0,
            "byteLength" : 69756,
            "byteOffset" : 227424
        },
        {
            "buffer" : 0,
            "byteLength" : 504999,
            "byteOffset" : 297180
        }
    ],
    "buffers" : [
        {
            "byteLength" : 802180,
            "uri" : "data:application/octet-stream;base64,"
        }
    ]
}
