{
    "asset" : {
        "generator" : "Khronos glTF Blender I/O v0.9.35",
        "version" : "2.0"
    },
    "scene" : 0,
    "scenes" : [
        {
            "name" : "Scene",
            "nodes" : [
                0
            ]
        }
    ],
    "nodes" : [
        {
            "mesh" : 0,
            "name" : "rock1"
        }
    ],
    "materials" : [
        {
            "doubleSided" : true,
            "name" : "Material.001",
            "pbrMetallicRoughness" : {
                "baseColorTexture" : {
                    "index" : 0,
                    "texCoord" : 0
                },
                "metallicFactor" : 0,
                "roughnessFactor" : 0.5
            }
        }
    ],
    "meshes" : [
        {
            "name" : "rock1",
            "primitives" : [
                {
                    "attributes" : {
                        "POSITION" : 0,
                        "NORMAL" : 1,
                        "TEXCOORD_0" : 2
                    },
                    "indices" : 3,
                    "material" : 0
                }
            ]
        }
    ],
    "textures" : [
        {
            "source" : 0
        }
    ],
    "images" : [
        {
            "bufferView" : 4,
            "mimeType" : "image/jpeg",
            "name" : "rock101"
        }
    ],
    "accessors" : [
        {
            "bufferView" : 0,
            "componentType" : 5126,
            "count" : 2916,
            "max" : [
                2.2364659309387207,
                1.289826512336731,
                1.8715741634368896
            ],
            "min" : [
                -2.238053560256958,
                -1.0406041145324707,
                -1.8210368156433105
            ],
            "type" : "VEC3"
        },
        {
            "bufferView" : 1,
            "componentType" : 5126,
            "count" : 2916,
            "type" : "VEC3"
        },
        {
            "bufferView" : 2,
            "componentType" : 5126,
            "count" : 2916,
            "type" : "VEC2"
        },
        {
            "bufferView" : 3,
            "componentType" : 5123,
            "count" : 12576,
            "type" : "SCALAR"
        }
    ],
    "bufferViews" : [
        {
            "buffer" : 0,
            "byteLength" : 34992,
            "byteOffset" : 0
        },
        {
            "buffer" : 0,
            "byteLength" : 34992,
            "byteOffset" : 34992
        },
        {
            "buffer" : 0,
            "byteLength" : 23328,
            "byteOffset" : 69984
        },
        {
            "buffer" : 0,
            "byteLength" : 25152,
            "byteOffset" : 93312
        },
        {
            "buffer" : 0,
            "byteLength" : 504999,
            "byteOffset" : 118464
        }
    ],
    "buffers" : [
        {
            "byteLength" : 623464,
            "uri" : "data:application/octet-stream;base64,"
        }
    ]
}
